<svg width="71" height="103" viewBox="0 0 71 103" fill="none" xmlns="http://www.w3.org/2000/svg">
<path d="M17.7857 37.7833L11.4971 31.4617L15.66 27.2572L21.919 33.6086L17.7857 37.7833ZM38.4524 20.1901V29.1358H32.5476V20.1901H38.4524ZM59.5029 31.4617L53.2143 37.7833L49.081 33.6086L55.34 27.2572L59.5029 31.4617ZM13.3571 48.5181V54.4819H4.5V48.5181H13.3571ZM57.6429 48.5181H66.5V54.4819H57.6429V48.5181ZM17.7857 76.8462H53.2143C54.7803 76.8462 56.2822 77.4745 57.3896 78.5929C58.4969 79.7114 59.119 81.2283 59.119 82.81H11.881C11.881 81.2283 12.5031 79.7114 13.6104 78.5929C14.7178 77.4745 16.2197 76.8462 17.7857 76.8462ZM35.5 32.1177C40.1981 32.1177 44.7038 34.0027 48.0259 37.3579C51.348 40.7132 53.2143 45.264 53.2143 50.0091V73.8643H17.7857V50.0091C17.7857 45.264 19.652 40.7132 22.9741 37.3579C26.2962 34.0027 30.8019 32.1177 35.5 32.1177Z" fill="#03D6F3"/>
</svg>
